<?xml version="1.0" encoding="utf-8"?>
<!-- Generator: Adobe Illustrator 24.0.0, SVG Export Plug-In . SVG Version: 6.00 Build 0)  -->
<svg version="1.1" id="Layer_1" xmlns="http://www.w3.org/2000/svg" xmlns:xlink="http://www.w3.org/1999/xlink" x="0px" y="0px"
	 viewBox="0 0 632 627" style="enable-background:new 0 0 632 627;" xml:space="preserve">
<style type="text/css">
	.st0{fill:none;stroke:#257A5D;stroke-width:5;stroke-miterlimit:10;}
	.st1{fill:#418B72;}
	.st2{fill:none;stroke:#257A5D;stroke-width:2;stroke-miterlimit:10;}
</style>
<circle class="st0" cx="148.08" cy="482.83" r="115.32"/>
<circle class="st0" cx="474.34" cy="360.27" r="115.32"/>
<circle class="st0" cx="205.83" cy="143.42" r="115.32"/>
<g>
	<g>
		<g>
			<polygon class="st1" points="353.23,406.19 291.96,437.64 289.57,432.99 275.32,455.09 301.59,456.4 299.2,451.75 360.48,420.3 
							"/>
		</g>
	</g>
</g>
<g>
	<g>
		<g>
			<polygon class="st1" points="167.42,352.21 173.63,295.64 178.82,296.21 168.23,272.13 152.67,293.34 157.86,293.91 
				151.65,350.48 			"/>
		</g>
	</g>
</g>
<g>
	<g>
		<g>
			<polygon class="st1" points="314.91,214.55 367.72,259.11 364.35,263.1 390.24,267.73 381.32,242.99 377.95,246.98 
				325.14,202.42 			"/>
		</g>
	</g>
</g>
<path class="st2" d="M170.18,107.63c-0.13,0.99,0.63,1.87,1.63,1.89l3.38,0.07c0.85,0.01,1.57-0.59,1.7-1.42
	c0.08-0.51,0.21-1.16,0.39-1.89l32.66,0.57c0.15,0.72,0.28,1.39,0.33,1.9c0.1,0.84,0.8,1.48,1.65,1.48l3.38,0.05
	c1,0.02,1.8-0.84,1.7-1.83c-0.41-3.97-2.44-13.54-12.06-21.94c-1.86,1.26-3.92,2.46-6.18,3.6c0.64,0.49,1.18,1,1.75,1.52
	l-13.35-0.23c2.26-1.85,4.98-3.64,8.32-5.23c18.16-8.63,21.7-22.51,22.4-27.51c0.13-0.99-0.63-1.87-1.63-1.89l-3.39-0.07
	c-0.85-0.01-1.57,0.59-1.7,1.42c-0.08,0.51-0.21,1.16-0.39,1.89l-32.67-0.57c-0.15-0.74-0.26-1.38-0.32-1.9
	c-0.1-0.84-0.8-1.48-1.65-1.48l-3.38-0.05c-1-0.02-1.8,0.84-1.71,1.83c0.47,4.5,2.99,16.15,16.29,25.19
	C173.75,91.59,170.81,103.15,170.18,107.63z M194.1,79.33c-2.6-1.48-4.8-3.05-6.65-4.68l13.44,0.23
	C199.01,76.44,196.75,77.95,194.1,79.33L194.1,79.33z M208.04,66.64c-0.63,1.08-1.38,2.18-2.25,3.31l-23.02-0.4
	c-0.85-1.16-1.56-2.29-2.14-3.39L208.04,66.64z M180.03,99.63c0.63-1.08,1.38-2.18,2.25-3.31l22.95,0.4
	c0.85,1.16,1.57,2.29,2.16,3.39L180.03,99.63z"/>
<path class="st2" d="M239.97,517.91l-55.49-0.97l0.68-39.05c0.02-1.14-0.88-2.07-2.02-2.09l-4.11-0.07
	c-1.14-0.02-2.07,0.88-2.09,2.02l-0.75,43.16c-0.04,2.27,1.77,4.14,4.04,4.18l59.6,1.04c1.14,0.02,2.07-0.88,2.09-2.02l0.07-4.11
	C242.01,518.87,241.1,517.93,239.97,517.91z M236.5,480.85l-15.17-0.26c-2.75-0.05-4.18,3.25-2.27,5.22l4.09,4.23l-9.59,9.26
	l-9.26-9.59c-1.58-1.63-4.18-1.68-5.81-0.1l-8.98,8.67c-0.82,0.79-0.84,2.09-0.05,2.91l2.85,2.96c0.79,0.82,2.09,0.84,2.91,0.05
	l6.02-5.81l9.26,9.59c1.58,1.63,4.18,1.68,5.81,0.1l12.55-12.12l4.09,4.23c1.91,1.98,5.25,0.66,5.3-2.09l0.26-15.16
	C238.54,481.8,237.64,480.87,236.5,480.85z"/>
<path class="st2" d="M432.39,336.66c-0.3-0.01-0.6,0.03-0.88,0.12c-1.62,0.5-3.32,0.8-5.11,0.77c-1.78-0.03-3.47-0.4-5.08-0.95
	c-0.28-0.1-0.58-0.15-0.87-0.15c-7.72-0.13-14.08,6.03-14.17,13.76c-0.04,3.27,2.6,5.94,5.87,6L440,356.7
	c3.27,0.06,6-2.52,6.07-5.79C446.25,343.18,440.11,336.8,432.39,336.66z M426.49,332.58c6.59,0.12,12.03-5.14,12.15-11.73
	c0.12-6.59-5.14-12.03-11.73-12.15c-6.59-0.12-12.03,5.14-12.15,11.73C414.65,327.02,419.9,332.46,426.49,332.58z M480.91,293.72
	l-47.76-0.83c-3.29-0.06-6.02,2.66-6.08,6.06l-0.1,5.77c2.91,0.05,5.59,0.94,7.92,2.35l0.11-6.19l43.78,0.76l-0.63,35.82l-7.96-0.14
	l0.14-7.96l-15.92-0.28l-0.14,7.96l-9.48-0.17c2.34,2.12,4.03,4.89,4.8,8.05l30.41,0.53c3.29,0.06,6.02-2.66,6.08-6.06l0.69-39.4
	C486.83,296.59,484.2,293.77,480.91,293.72z"/>
<path class="st2" d="M302.55,172.08l-1.87-0.03l0.22-12.61c0.03-1.48-0.54-2.92-1.58-3.98l-11.45-11.86
	c-1.03-1.07-2.44-1.69-3.93-1.71l-5.14-0.09l0.1-5.6c0.05-3.09-2.41-5.64-5.5-5.7l-37.33-0.65c-3.09-0.05-5.64,2.41-5.7,5.5
	l-0.65,37.33c-0.05,3.09,2.41,5.64,5.5,5.7l1.87,0.03c-0.11,6.18,4.82,11.29,11,11.39c6.18,0.11,11.29-4.82,11.39-11l14.93,0.26
	c-0.11,6.18,4.82,11.29,11,11.39c6.18,0.11,11.29-4.82,11.39-11l5.6,0.1c1.03,0.02,1.88-0.81,1.9-1.83l0.07-3.73
	C304.4,172.95,303.57,172.1,302.55,172.08z M248.19,184.2c-3.09-0.05-5.56-2.61-5.5-5.7s2.61-5.56,5.7-5.5
	c3.09,0.05,5.56,2.61,5.5,5.7C253.83,181.79,251.28,184.25,248.19,184.2z M265.49,155.56c-0.01,0.51-0.44,0.93-0.95,0.92l-6.53-0.11
	l-0.11,6.53c-0.01,0.51-0.44,0.93-0.95,0.92l-5.6-0.1c-0.51-0.01-0.93-0.44-0.92-0.95l0.11-6.53l-6.53-0.11
	c-0.51-0.01-0.93-0.44-0.92-0.95l0.1-5.6c0.01-0.51,0.44-0.93,0.95-0.92l6.53,0.11l0.11-6.53c0.01-0.51,0.44-0.93,0.95-0.92l5.6,0.1
	c0.51,0.01,0.93,0.44,0.92,0.95l-0.11,6.53l6.53,0.11c0.51,0.01,0.93,0.44,0.92,0.95L265.49,155.56z M285.52,184.85
	c-3.09-0.05-5.56-2.61-5.5-5.7s2.61-5.56,5.7-5.5c3.09,0.05,5.56,2.61,5.5,5.7C291.16,182.44,288.61,184.91,285.52,184.85z
	 M295.28,160.75l-16.8-0.29l0.23-13.07l5.14,0.09l11.45,11.86L295.28,160.75z"/>
<path class="st2" d="M146.42,181.8l1.48,0.03l-0.03,1.97c-0.02,1.09,0.85,1.99,1.94,2l4.93,0.09c1.09,0.02,1.99-0.85,2-1.94
	l0.03-1.97l1.48,0.03c2.18,0.04,3.97-1.7,4.01-3.87l0.48-27.59c0.04-2.18-1.7-3.97-3.87-4.01l0.03-1.97c0.02-1.09-0.85-1.99-1.94-2
	l-7.88-0.14c-1.09-0.02-1.99,0.85-2,1.94l-0.03,1.97c-2.18-0.04-3.97,1.7-4.01,3.87l-0.48,27.59
	C142.51,179.97,144.25,181.77,146.42,181.8z M183.58,198.22l-0.16,0c3.83-4.12,6.24-9.6,6.35-15.66
	c0.23-13.04-10.19-23.83-23.23-24.06l-0.14,7.88c8.69,0.15,15.64,7.35,15.49,16.04s-7.35,15.64-16.04,15.49l-33.5-0.58
	c-3.26-0.06-5.96,2.54-6.01,5.81c-0.02,1.09,0.85,1.99,1.94,2l59.11,1.03c1.09,0.02,1.99-0.85,2-1.94
	C189.45,200.97,186.85,198.28,183.58,198.22z M139.32,193.51l25.61,0.45c0.54,0.01,0.99-0.42,1-0.97l0.03-1.97
	c0.01-0.54-0.42-0.99-0.97-1l-25.61-0.45c-0.54-0.01-0.99,0.42-1,0.97l-0.03,1.97C138.34,193.05,138.78,193.5,139.32,193.51z"/>
<path class="st2" d="M523.59,319.98c-3.06-0.05-5.64,2.01-6.42,4.83c-0.08,0-0.15-0.03-0.22-0.03c-3.62-0.06-6.61,2.82-6.67,6.44
	c-0.01,0.5,0.05,0.98,0.14,1.44c-3,1.17-5.16,4.06-5.22,7.49c-0.02,1.29,0.28,2.5,0.79,3.59c-2.48,1.37-4.2,3.97-4.26,7.01
	c-0.06,3.42,1.98,6.38,4.93,7.66c-0.1,0.47-0.16,0.95-0.17,1.44c-0.07,4.07,3.17,7.43,7.25,7.5c0.42,0.01,0.83-0.04,1.23-0.1
	c0.93,2.94,3.62,5.11,6.88,5.16c4.07,0.07,7.43-3.17,7.5-7.25l0.42-24.03c-1.13,0.9-2.48,1.54-3.96,1.82
	c-0.51,0.1-0.98-0.31-0.97-0.83l0.03-1.66c0.01-0.37,0.25-0.69,0.61-0.77c2.49-0.59,4.37-2.79,4.42-5.46l0.13-7.59
	C530.09,323.03,527.21,320.04,523.59,319.98z M560.74,351.78c0.05-3.04-1.58-5.69-4.01-7.15c0.55-1.08,0.89-2.27,0.92-3.56
	c0.06-3.42-1.99-6.39-4.96-7.67c0.11-0.46,0.19-0.94,0.2-1.44c0.06-3.62-2.82-6.61-6.44-6.67c-0.08,0-0.15,0.02-0.23,0.02
	c-0.67-2.85-3.18-5-6.24-5.05c-3.62-0.06-6.61,2.82-6.67,6.44l-0.13,7.59c-0.05,2.67,1.76,4.94,4.23,5.61
	c0.35,0.1,0.59,0.43,0.58,0.8l-0.03,1.66c-0.01,0.52-0.5,0.9-1,0.79c-1.47-0.33-2.79-1.01-3.9-1.95l-0.42,24.03
	c-0.07,4.07,3.17,7.43,7.25,7.5c3.25,0.06,6.02-2.02,7.05-4.92c0.4,0.08,0.81,0.14,1.23,0.15c4.07,0.07,7.43-3.17,7.5-7.25
	c0.01-0.49-0.04-0.98-0.12-1.45C558.54,358.08,560.68,355.2,560.74,351.78z"/>
<path class="st2" d="M466.64,391.06l13.73,14.22l-30.88,29.82L437,436.26c-1.67,0.16-3.06-1.28-2.84-2.95l1.6-12.45L466.64,391.06z
	 M489.3,389.37l-6.45-6.68c-2.01-2.08-5.33-2.14-7.42-0.13l-6.28,6.07l13.73,14.22l6.28-6.07
	C491.25,394.77,491.31,391.45,489.3,389.37z"/>
<path class="st2" d="M165.64,433.71l2.85,0.05c0.81,0.01,1.64-0.78,1.65-1.6l0.51-29.28c0.01-0.81-0.78-1.64-1.6-1.65l-2.85-0.05
	c-0.81-0.01-1.64,0.78-1.65,1.6l-0.51,29.28C164.03,432.87,164.83,433.7,165.64,433.71z M141.24,433.29l2.85,0.05
	c0.81,0.01,1.64-0.78,1.65-1.6l0.44-25.21c0.01-0.81-0.78-1.64-1.6-1.65l-2.85-0.05c-0.81-0.01-1.64,0.78-1.65,1.6l-0.44,25.21
	C139.63,432.44,140.43,433.27,141.24,433.29z M153.44,433.5l2.85,0.05c0.81,0.01,1.64-0.78,1.65-1.6l0.3-17.08
	c0.01-0.81-0.78-1.64-1.6-1.65l-2.85-0.05c-0.81-0.01-1.64,0.78-1.65,1.6l-0.3,17.08C151.83,432.66,152.63,433.49,153.44,433.5z
	 M178.14,440.03l-56.93-0.99l0.71-40.66c0.02-1.12-0.87-2.05-2-2.07l-2.03-0.04c-1.12-0.02-2.05,0.87-2.07,2l-0.75,42.7
	c-0.04,2.25,1.75,4.1,4,4.14l58.96,1.03c1.12,0.02,2.05-0.87,2.07-2l0.04-2.03C180.16,440.98,179.27,440.05,178.14,440.03z
	 M129.04,433.07l2.85,0.05c0.81,0.01,1.64-0.78,1.65-1.6l0.16-8.95c0.01-0.81-0.78-1.64-1.6-1.65l-2.85-0.05
	c-0.81-0.01-1.64,0.78-1.65,1.6l-0.16,8.95C127.43,432.23,128.23,433.06,129.04,433.07z"/>
<path class="st2" d="M135.93,533.56l-29.36-0.51c-0.13,2.4-1.85,3.84-4.03,3.81l-7.36-0.13c-2.26-0.04-3.96-2.18-3.9-3.94
	l-28.96-0.51c-1.07-0.02-1.95,0.84-1.97,1.9l-0.03,1.94c-0.07,4.26,3.35,7.81,7.61,7.88l61.99,1.08c4.26,0.07,7.81-3.35,7.88-7.61
	l0.03-1.94C137.85,534.46,136.99,533.57,135.93,533.56z M130.9,488.9c0.06-3.2-2.51-5.86-5.71-5.91l-50.37-0.88
	c-3.2-0.06-5.86,2.51-5.91,5.71L68.2,528.5l61.99,1.08L130.9,488.9z M122.57,521.7l-46.49-0.81l0.54-30.99l46.49,0.81L122.57,521.7z
	"/>
</svg>
